<?xml version="1.0" encoding="UTF-8"?><svg id="Layer_1" xmlns="http://www.w3.org/2000/svg" viewBox="0 0 1131.34 281.44"><defs><style>.cls-1{fill:#fbc005;}</style></defs><path class="cls-1" d="M367.99,16.05c-9.03-1.86-18.76-.35-28.17-.35,0-.28,0-.56,0-.83-7.97,0-15.94,.09-23.9-.02-8.16-.12-13.47,4.04-17.17,10.87-6.1,11.26-6.8,23.77-8.14,36.06-4.07,37.38-8.03,74.77-11.78,112.18-1.92,19.22-5.15,38.36-5.12,57.72,.03,15.02,7.53,21.43,22.21,19.98,13.4-1.33,26.81-2.64,40.21-4,19.99-2.02,25.19-5.22,28.73-22.11,6.89-32.83,7.99-66.45,12.29-99.65,3.23-24.95,5.36-50.04,8.71-74.98,2.24-16.63-4.25-32.06-17.86-34.87Zm-39.78,185.3c-3.6,.28-6.87,.54-10.73,.84,4.98-47.56,9.9-94.48,14.83-141.58h11.27c-5.12,46.88-10.23,93.63-15.37,140.74Z"/><path class="cls-1" d="M50.31,9.71c-4.32,63.82-8.67,128.04-13.02,192.25-.39,5.51-.78,11.02-1.17,16.52,0,.07,0,.14-.01,.21-.02,.23-.03,.46-.05,.7,0-.26,0-.51,0-.77,0-.39,0-.79,0-1.18-.03-.68-.06-1.37-.06-2.05,.01-.67,.03-1.35,.06-2.02,0-.28,0-.55,0-.83,0-3.62,0-7.23,0-10.85,0,0,0,0,0,0,1.11-64.22,2.21-128.45,3.34-193.51H0C1.05,99.04,2.11,190.15,3.17,281.44c19.66-1.09,38.72-2.14,57.57-3.19,10.34-89.61,20.61-178.71,30.97-268.55H50.31Z"/><path class="cls-1" d="M174.12,162.09c1.45-16.83,2.89-33.5,4.33-50.2h-38.01c1.42-16.75,2.82-33.35,4.27-50.46h38.64c1.93-16.61,3.81-32.72,5.82-50.06H107.29c-7.31,86.08-14.7,173.07-22.09,260.07,3.38,0,6.19,.22,8.96-.03,22.07-1.98,44.12-4.16,66.19-6.01,4.01-.34,5.88-1.21,5.52-5.67-.28-3.38,.55-6.85,.83-10.29,.97-11.82,1.92-23.64,2.91-35.9-13.11,.9-25.76,1.77-38.86,2.68,1.69-17.76,3.31-34.87,4.97-52.23,12.87-.63,25.49-1.26,38.4-1.89Z"/><path class="cls-1" d="M672.83,14.14c-9.64,.1-19.28,.02-28.91,.02,0,.25,0,.5,0,.74-2.41,0-4.83,.11-7.23-.02-18.86-1.04-26.34,4.6-30.63,23.81-4.42,19.79-6.78,40.06-9.78,60.15-4.67,31.35-8.94,62.76-13.73,94.08-2.27,14.86,5.23,24.65,19.48,23.24,16.7-1.65,33.31-4.26,49.98-6.26,11.24-1.35,18.2-7.5,21.33-18.15,5.94-20.19,7.24-41.21,10.77-61.83,4.87-28.45,8.78-57.07,13.77-85.49,3.22-18.33-6.38-30.49-25.06-30.3Zm-35.38,157.96c-3.51,.34-6.78,.65-10.71,1.03,5.93-40.32,11.78-80.12,17.66-120.09h11.2c-6.04,39.64-12.08,79.19-18.16,119.06Z"/><path class="cls-1" d="M528.55,183.53c-3.84,.47-7.31,.89-11.31,1.38,5.82-43.05,11.56-85.48,17.32-128.09h11.33c-1.66,13.81-3.29,27.38-4.93,41,13.95-.75,27.31-1.46,41.21-2.21,2.33-18.65,5.37-37.09,6.72-55.66,1.12-15.37-4.16-22.59-19.43-24-17.54-1.63-35.37-.53-53.05,0-6.95,.2-14.81,.6-17.87,8.77-1.96,5.23-3.39,10.79-4.11,16.33-4.89,37.7-9.69,75.41-14.2,113.15-2.51,21.02-6.46,41.91-6.57,63.16-.06,10.97,3.24,13.94,14.18,12.81,18.16-1.88,36.3-4,54.38-6.48,18.29-2.52,20.99-5.21,24.25-23.53,2.01-11.29,3.37-22.7,5.05-34.05,1.39-9.44,2.82-18.87,4.27-28.58-14.11,1.07-27.52,2.08-41,3.1-2.11,14.52-4.17,28.72-6.23,42.91Z"/><path class="cls-1" d="M812.17,12.35h-42.2c-7.94,49.53-15.78,98.36-23.61,147.2-3.94,.51-7.72,1-12.34,1.6,8.65-49.75,17.2-98.88,25.7-147.74h-41.08c-.3,1.17-.49,1.76-.59,2.36-6.36,39.41-12.91,78.79-18.98,118.24-2.68,17.38-7.19,34.61-5.95,52.45,.66,9.54,6.37,15.56,15.79,14.6,20.62-2.11,41.19-4.88,61.68-8,3.17-.48,8.67,2.38,9.83-4.21,7.46-42.48,15-84.95,22.6-127.41,2.95-16.49,6.13-32.94,9.15-49.09Z"/><path class="cls-1" d="M898.25,10.17c-20.4-.45-40.85,1.09-61.25,.7-7.9-.15-10.33,2.7-10.39,9.6,0,.52-.05,1.04-.14,1.55-7.69,42.32-15.42,84.63-23.07,126.95-2.44,13.49-4.66,27.02-7.04,40.88,12.9-1.89,25.34-3.7,37.77-5.53,1.52-.22,3.18-.26,3.52-2.38,1.25-7.82,2.53-15.64,3.86-23.45,1.6-9.39,3.25-18.77,4.88-28.15,.35,0,.7,0,1.05,.01,3.35,16.87,6.7,33.73,10.04,50.6,13.38-2,26.33-3.94,39.84-5.96-4.85-22.01-9.6-43.59-14.35-65.15,10.37-5.12,19.72-10.91,22.47-22.94,3.93-17.15,7.87-34.3,11.51-51.52,2.89-13.66-4.86-24.91-18.71-25.21Zm-30.73,67.34c-3.8,.26-7.5,.51-11.87,.81,2.51-11.63,4.9-22.76,7.43-34.47,3.51-.19,6.8-.38,10.79-.6-2.16,11.65-4.21,22.73-6.35,34.26Z"/><path class="cls-1" d="M440.83,58.31h37.77c2.43-14.4,4.74-28.09,7.12-42.17h-81.73c-8.85,75.35-17.7,150.65-26.66,226.89,10.81-1.3,20.74-3.61,30.6-3.36,10.35,.26,11.49-4.77,12.28-13.12,2.41-25.55,5.7-51.02,8.62-76.52,.2-1.72,1.19-2.25,2.75-2.33,10.14-.56,20.26-1.29,30.41-1.67,3.97-.15,6.51-.8,6.47-5.64-.03-3.6,1.03-7.2,1.52-10.82,1.22-9.13,2.39-18.27,3.64-27.87-13.23,.6-25.74,1.16-38.65,1.75,1.97-15.15,3.87-29.78,5.86-45.13Z"/><path class="cls-1" d="M243.95,12.57h-43.19c-3.64,38.07-7.4,75.99-10.86,113.94-4.02,44.11-7.76,88.25-11.71,132.36-.26,2.93,.06,4.26,3.52,3.91,14.03-1.41,28.09-2.49,42.12-3.87,10.98-1.08,21.95-2.41,33.25-3.66,1.55-16.31,3.09-32.38,4.66-48.9-12.87,.95-25.08,1.85-37.63,2.78,6.65-65.88,13.22-130.96,19.84-196.56Z"/><path class="cls-1" d="M1021.27,64.74c-18.19,1.53-35.63,2.99-53.81,4.52,2.18-10.71,4.24-20.95,6.39-31.18,.08-.4,.95-.91,1.47-.92,4.24-.07,8.49-.04,12.88-.04-.99,4.74-1.99,9.52-3.13,14.94,13.48-1.02,26.65-2.01,39.78-3.01,1.82-8.19,3.75-16.08,5.3-24.05,1.12-5.77,3.75-12.03-2.45-16.69-3.85-2.9-8.54-3.19-13.14-3.01-18.63,.71-37.26,1.44-55.88,2.37-11.61,.59-17.78,5.43-20.53,17.02-3.62,15.27-6.59,30.71-9.75,46.09-2.36,11.47-4.57,22.98-6.9,34.71,18.13-1.9,35.7-3.74,53.7-5.63-1.5,7.66-2.93,14.68-4.25,21.73-2.04,10.91-5.84,13.74-16.59,11.97,1-5.03,2-10.06,3.12-15.68-13.28,1.55-25.9,3.03-38.96,4.55-1.68,7.8-3.38,15.63-5.05,23.46-.15,.71-.16,1.45-.23,2.18-1.57,15.45,6.24,23.05,21.62,20.86,15.17-2.16,30.31-4.5,45.47-6.72,12.88-1.89,22.13-7.7,24.84-21.5,3.11-15.83,6.64-31.58,9.99-47.37,1.98-9.32,3.97-18.64,6.1-28.6Z"/><path class="cls-1" d="M1122.87,27.54c2.75-8.94,5.52-17.94,8.47-27.54-27.21,1.22-53.85,2.41-80.71,3.61-12.8,50.74-24.81,101.47-36.1,152.81,1.7-.14,2.93-.16,4.13-.35,21.58-3.42,43.2-6.64,64.71-10.49,3.6-.64,9.25,1.17,10.73-3.69,2.68-8.81,4.31-17.94,6.49-27.44-12.88,1.8-25.46,3.55-38.42,5.36,2.67-10.51,5.18-20.36,7.75-30.5,12.78-1.52,25.48-3.04,38.14-4.55,2.36-9.59,4.62-18.75,7.05-28.63-12.81,1.15-24.93,2.23-37.64,3.37,2.44-10.06,4.75-19.59,7.1-29.27,12.84-.9,25.45-1.79,38.3-2.7Z"/></svg>