<?xml version="1.0" encoding="utf-8"?>
<!-- Generator: Adobe Illustrator 26.5.2, SVG Export Plug-In . SVG Version: 6.00 Build 0)  -->
<svg version="1.1" xmlns="http://www.w3.org/2000/svg" xmlns:xlink="http://www.w3.org/1999/xlink" x="0px" y="0px"
	 viewBox="0 0 500 500" style="enable-background:new 0 0 500 500;" xml:space="preserve">
<style type="text/css">
	.st0{display:none;}
	.st1{fill:#3FA9F5;stroke:#1A1A1A;stroke-width:0.5;stroke-miterlimit:10;}
	.st2{fill:#333333;stroke:#1A1A1A;stroke-width:0.5;stroke-miterlimit:10;}
	.st3{fill:#1A1A1A;stroke:#1A1A1A;stroke-width:0.5;stroke-miterlimit:10;}
	.st4{fill:#B3B3B3;stroke:#1A1A1A;stroke-width:0.5;stroke-miterlimit:10;}
	.st5{fill:#666666;}
	.st6{fill:#808080;stroke:#1A1A1A;stroke-width:0.5;stroke-miterlimit:10;}
	.st7{fill:#E6E6E6;stroke:#1A1A1A;stroke-width:0.5;stroke-miterlimit:10;}
</style>
<g id="Layer_1" class="st0">
	
		<image style="display:inline;overflow:visible;" width="800" height="600" xlink:href="../../../../Downloads/old-tv.jpg"  transform="matrix(1 0 0 1 -150 -50)">
	</image>
</g>
<g id="Layer_3">
	<g>
		<path class="st1" d="M97.7,426.3c0,1.2,0.9,2.1,2.1,2.1h11.8c1.2,0,2.1-0.9,2.1-2.1v-6.7h-16V426.3z"/>
		<path class="st1" d="M250,396.8c-107,0-182.2-2-182.2-2c-2.5,0-4.9-0.2-7.2-0.6l5.4,19.4c1,3.5,4.1,5.9,7.7,5.9h24h16h274.9h16
			h22.1c3.6,0,6.8-2.4,7.7-5.9l5.3-19.2c-1.9,0.3-3.8,0.4-5.7,0.4C433.9,394.8,357,396.8,250,396.8z M133,414.7
			c0,0.3-0.3,0.6-0.6,0.6H130c-0.3,0-0.6-0.3-0.6-0.6v-12c0-0.3,0.3-0.6,0.6-0.6h2.5c0.3,0,0.6,0.3,0.6,0.6V414.7z M139,414.7
			c0,0.3-0.3,0.6-0.6,0.6H136c-0.3,0-0.6-0.3-0.6-0.6v-12c0-0.3,0.3-0.6,0.6-0.6h2.5c0.3,0,0.6,0.3,0.6,0.6V414.7z M145,414.7
			c0,0.3-0.3,0.6-0.6,0.6H142c-0.3,0-0.6-0.3-0.6-0.6v-12c0-0.3,0.3-0.6,0.6-0.6h2.5c0.3,0,0.6,0.3,0.6,0.6V414.7z M338.1,414.7
			c0,0.3-0.3,0.6-0.6,0.6H335c-0.3,0-0.6-0.3-0.6-0.6v-12c0-0.3,0.3-0.6,0.6-0.6h2.5c0.3,0,0.6,0.3,0.6,0.6V414.7z M344.1,414.7
			c0,0.3-0.3,0.6-0.6,0.6H341c-0.3,0-0.6-0.3-0.6-0.6v-12c0-0.3,0.3-0.6,0.6-0.6h2.5c0.3,0,0.6,0.3,0.6,0.6V414.7z M350.1,414.7
			c0,0.3-0.3,0.6-0.6,0.6H347c-0.3,0-0.6-0.3-0.6-0.6v-12c0-0.3,0.3-0.6,0.6-0.6h2.5c0.3,0,0.6,0.3,0.6,0.6V414.7z M356.1,414.7
			c0,0.3-0.3,0.6-0.6,0.6H353c-0.3,0-0.6-0.3-0.6-0.6v-12c0-0.3,0.3-0.6,0.6-0.6h2.5c0.3,0,0.6,0.3,0.6,0.6V414.7z M362.1,414.7
			c0,0.3-0.3,0.6-0.6,0.6H359c-0.3,0-0.6-0.3-0.6-0.6v-12c0-0.3,0.3-0.6,0.6-0.6h2.5c0.3,0,0.6,0.3,0.6,0.6V414.7z M368.1,414.7
			c0,0.3-0.3,0.6-0.6,0.6H365c-0.3,0-0.6-0.3-0.6-0.6v-12c0-0.3,0.3-0.6,0.6-0.6h2.5c0.3,0,0.6,0.3,0.6,0.6V414.7z"/>
		<path class="st1" d="M388.6,426.3c0,1.2,0.9,2.1,2.1,2.1h11.8c1.2,0,2.1-0.9,2.1-2.1v-6.7h-16V426.3z"/>
		<path class="st1" d="M472.7,130c-1.2-17.5-10.8-39.2-38.8-40.8c-10-0.6-32.9-0.9-77-1.1c-5.6,0-11.6,0-18-0.1
			C315.3,88,286.5,88,251.8,88c-116.8,0-170.2,1.3-184,1.3C42.2,89.2,31.6,106.6,30,130c-1,14-3,59.2-3,120s1.8,90.2,3,103.1
			c2.1,23.2,11.3,37.7,30.6,41.1c2.3,0.4,4.7,0.6,7.2,0.6c0,0,75.2,2,182.2,2s183.9-2,183.9-2c2,0,3.9-0.1,5.7-0.4
			c16.3-2.9,30.8-9.6,33-41.4c1-15,2.8-28.3,2.8-103.1S473.7,143.8,472.7,130z M463,236.5c0,71.7-2,85.6-3.7,110.4
			c-1.6,24.7-6.6,35.1-35.6,35.4s-79.6,2.5-183.2,2.5s-162.7-2.5-162.7-2.5c-23,0.5-33.3-5.8-35.6-35.4c-2.2-29.6-3-29.4-3-105.6
			s1.6-82.3,3-105.1c1.4-22.8,8.4-35.5,35.6-35.4s44.9-2,171.9-2s146.6,2.6,173.9,3s34.1,7.3,35.6,34.4S463.1,164.9,463,236.5z"/>
		<path class="st2" d="M337.5,402.1H335c-0.3,0-0.6,0.3-0.6,0.6v12c0,0.3,0.3,0.6,0.6,0.6h2.5c0.3,0,0.6-0.3,0.6-0.6v-12
			C338.1,402.4,337.8,402.1,337.5,402.1z"/>
		<path class="st2" d="M343.5,402.1H341c-0.3,0-0.6,0.3-0.6,0.6v12c0,0.3,0.3,0.6,0.6,0.6h2.5c0.3,0,0.6-0.3,0.6-0.6v-12
			C344.1,402.4,343.8,402.1,343.5,402.1z"/>
		<path class="st2" d="M349.5,402.1H347c-0.3,0-0.6,0.3-0.6,0.6v12c0,0.3,0.3,0.6,0.6,0.6h2.5c0.3,0,0.6-0.3,0.6-0.6v-12
			C350.1,402.4,349.8,402.1,349.5,402.1z"/>
		<path class="st2" d="M355.5,402.1H353c-0.3,0-0.6,0.3-0.6,0.6v12c0,0.3,0.3,0.6,0.6,0.6h2.5c0.3,0,0.6-0.3,0.6-0.6v-12
			C356.1,402.4,355.8,402.1,355.5,402.1z"/>
		<path class="st2" d="M361.5,402.1H359c-0.3,0-0.6,0.3-0.6,0.6v12c0,0.3,0.3,0.6,0.6,0.6h2.5c0.3,0,0.6-0.3,0.6-0.6v-12
			C362.1,402.4,361.8,402.1,361.5,402.1z"/>
		<path class="st2" d="M367.5,402.1H365c-0.3,0-0.6,0.3-0.6,0.6v12c0,0.3,0.3,0.6,0.6,0.6h2.5c0.3,0,0.6-0.3,0.6-0.6v-12
			C368.1,402.4,367.8,402.1,367.5,402.1z"/>
		<path class="st2" d="M144.5,402.1H142c-0.3,0-0.6,0.3-0.6,0.6v12c0,0.3,0.3,0.6,0.6,0.6h2.5c0.3,0,0.6-0.3,0.6-0.6v-12
			C145,402.4,144.8,402.1,144.5,402.1z"/>
		<path class="st2" d="M138.5,402.1H136c-0.3,0-0.6,0.3-0.6,0.6v12c0,0.3,0.3,0.6,0.6,0.6h2.5c0.3,0,0.6-0.3,0.6-0.6v-12
			C139,402.4,138.8,402.1,138.5,402.1z"/>
		<path class="st2" d="M132.5,402.1H130c-0.3,0-0.6,0.3-0.6,0.6v12c0,0.3,0.3,0.6,0.6,0.6h2.5c0.3,0,0.6-0.3,0.6-0.6v-12
			C133,402.4,132.8,402.1,132.5,402.1z"/>
		<path class="st3" d="M423.8,101.7c-27.4-0.4-46.9-3-173.9-3s-144.7,2-171.9,2s-34.1,12.6-35.6,35.4c-1.4,22.8-3,29-3,105.1
			s0.8,76,3,105.6c2.2,29.6,12.6,36,35.6,35.4c0,0,59.1,2.5,162.7,2.5s154.2-2.2,183.2-2.5s33.9-10.7,35.6-35.4
			c1.6-24.7,3.6-38.7,3.7-110.4s-2.2-73.2-3.7-100.3S451.2,102.1,423.8,101.7z M355.1,335.5c-1.1,14.9-5,23.8-24,26
			c-30.8,3.6-50.6,5-126.9,5s-107.5-2.5-126.9-5c-19.9-2.6-22.7-6.4-24-26c-1.4-20.2-5-53.5-5-105.2c0-51.6,3.5-78.4,5-96
			c1.5-17.9,5.9-23.6,24-26c18.4-2.4,63.9-5,126.9-5s109.5,3,126.9,5c18.2,2.1,23.2,8.7,24,26c0.6,13.1,5,49.8,5,100.6
			C360.1,285.7,356.4,315.9,355.1,335.5z M372.7,348.6c0-2.6,2.1-4.8,4.8-4.8c2.6,0,4.8,2.1,4.8,4.8c0,2.6-2.1,4.8-4.8,4.8
			C374.9,353.4,372.7,351.2,372.7,348.6z M377.5,265.8c2.6,0,4.8,2.1,4.8,4.8s-2.1,4.8-4.8,4.8c-2.6,0-4.8-2.1-4.8-4.8
			S374.9,265.8,377.5,265.8z M372.7,257.6c0-2.6,2.1-4.8,4.8-4.8c2.6,0,4.8,2.1,4.8,4.8c0,2.6-2.1,4.8-4.8,4.8
			C374.9,262.4,372.7,260.2,372.7,257.6z M377.5,278.8c2.6,0,4.8,2.1,4.8,4.8s-2.1,4.8-4.8,4.8c-2.6,0-4.8-2.1-4.8-4.8
			S374.9,278.8,377.5,278.8z M377.5,291.8c2.6,0,4.8,2.1,4.8,4.8s-2.1,4.8-4.8,4.8c-2.6,0-4.8-2.1-4.8-4.8S374.9,291.8,377.5,291.8z
			 M377.5,304.8c2.6,0,4.8,2.1,4.8,4.8s-2.1,4.8-4.8,4.8c-2.6,0-4.8-2.1-4.8-4.8S374.9,304.8,377.5,304.8z M377.5,317.8
			c2.6,0,4.8,2.1,4.8,4.8c0,2.6-2.1,4.8-4.8,4.8c-2.6,0-4.8-2.1-4.8-4.8C372.7,320,374.9,317.8,377.5,317.8z M377.5,330.8
			c2.6,0,4.8,2.1,4.8,4.8s-2.1,4.8-4.8,4.8c-2.6,0-4.8-2.1-4.8-4.8S374.9,330.8,377.5,330.8z M390.3,377.6
			c-5.6,0-10.1-4.5-10.1-10.1s4.5-10.1,10.1-10.1s10.1,4.5,10.1,10.1S395.9,377.6,390.3,377.6z M390.5,265.8c2.6,0,4.8,2.1,4.8,4.8
			s-2.1,4.8-4.8,4.8s-4.8-2.1-4.8-4.8S387.9,265.8,390.5,265.8z M385.7,257.6c0-2.6,2.1-4.8,4.8-4.8s4.8,2.1,4.8,4.8
			c0,2.6-2.1,4.8-4.8,4.8S385.7,260.2,385.7,257.6z M390.5,278.8c2.6,0,4.8,2.1,4.8,4.8s-2.1,4.8-4.8,4.8s-4.8-2.1-4.8-4.8
			S387.9,278.8,390.5,278.8z M390.5,291.8c2.6,0,4.8,2.1,4.8,4.8s-2.1,4.8-4.8,4.8s-4.8-2.1-4.8-4.8S387.9,291.8,390.5,291.8z
			 M390.5,304.8c2.6,0,4.8,2.1,4.8,4.8s-2.1,4.8-4.8,4.8s-4.8-2.1-4.8-4.8S387.9,304.8,390.5,304.8z M390.5,317.8
			c2.6,0,4.8,2.1,4.8,4.8c0,2.6-2.1,4.8-4.8,4.8s-4.8-2.1-4.8-4.8C385.7,320,387.9,317.8,390.5,317.8z M390.5,330.8
			c2.6,0,4.8,2.1,4.8,4.8s-2.1,4.8-4.8,4.8s-4.8-2.1-4.8-4.8S387.9,330.8,390.5,330.8z M390.5,343.8c2.6,0,4.8,2.1,4.8,4.8
			c0,2.6-2.1,4.8-4.8,4.8s-4.8-2.1-4.8-4.8C385.7,346,387.9,343.8,390.5,343.8z M403.5,353.4c-2.6,0-4.8-2.1-4.8-4.8
			c0-2.6,2.1-4.8,4.8-4.8s4.8,2.1,4.8,4.8C408.3,351.2,406.2,353.4,403.5,353.4z M403.5,340.4c-2.6,0-4.8-2.1-4.8-4.8
			s2.1-4.8,4.8-4.8s4.8,2.1,4.8,4.8S406.2,340.4,403.5,340.4z M403.5,327.4c-2.6,0-4.8-2.1-4.8-4.8c0-2.6,2.1-4.8,4.8-4.8
			s4.8,2.1,4.8,4.8C408.3,325.2,406.2,327.4,403.5,327.4z M403.5,314.4c-2.6,0-4.8-2.1-4.8-4.8s2.1-4.8,4.8-4.8s4.8,2.1,4.8,4.8
			S406.2,314.4,403.5,314.4z M403.5,301.4c-2.6,0-4.8-2.1-4.8-4.8s2.1-4.8,4.8-4.8s4.8,2.1,4.8,4.8S406.2,301.4,403.5,301.4z
			 M403.5,288.4c-2.6,0-4.8-2.1-4.8-4.8s2.1-4.8,4.8-4.8s4.8,2.1,4.8,4.8S406.2,288.4,403.5,288.4z M403.5,275.4
			c-2.6,0-4.8-2.1-4.8-4.8s2.1-4.8,4.8-4.8s4.8,2.1,4.8,4.8S406.2,275.4,403.5,275.4z M403.5,262.4c-2.6,0-4.8-2.1-4.8-4.8
			c0-2.6,2.1-4.8,4.8-4.8s4.8,2.1,4.8,4.8C408.3,260.2,406.2,262.4,403.5,262.4z M416.5,353.4c-2.6,0-4.8-2.1-4.8-4.8
			c0-2.6,2.1-4.8,4.8-4.8s4.8,2.1,4.8,4.8C421.3,351.2,419.2,353.4,416.5,353.4z M416.5,340.4c-2.6,0-4.8-2.1-4.8-4.8
			s2.1-4.8,4.8-4.8s4.8,2.1,4.8,4.8S419.2,340.4,416.5,340.4z M416.5,327.4c-2.6,0-4.8-2.1-4.8-4.8c0-2.6,2.1-4.8,4.8-4.8
			s4.8,2.1,4.8,4.8C421.3,325.2,419.2,327.4,416.5,327.4z M416.5,314.4c-2.6,0-4.8-2.1-4.8-4.8s2.1-4.8,4.8-4.8s4.8,2.1,4.8,4.8
			S419.2,314.4,416.5,314.4z M416.5,301.4c-2.6,0-4.8-2.1-4.8-4.8s2.1-4.8,4.8-4.8s4.8,2.1,4.8,4.8S419.2,301.4,416.5,301.4z
			 M416.5,288.4c-2.6,0-4.8-2.1-4.8-4.8s2.1-4.8,4.8-4.8s4.8,2.1,4.8,4.8S419.2,288.4,416.5,288.4z M416.5,275.4
			c-2.6,0-4.8-2.1-4.8-4.8s2.1-4.8,4.8-4.8s4.8,2.1,4.8,4.8S419.2,275.4,416.5,275.4z M416.5,262.4c-2.6,0-4.8-2.1-4.8-4.8
			c0-2.6,2.1-4.8,4.8-4.8s4.8,2.1,4.8,4.8C421.3,260.2,419.2,262.4,416.5,262.4z M432.3,377.6c-5.6,0-10.1-4.5-10.1-10.1
			s4.5-10.1,10.1-10.1s10.1,4.5,10.1,10.1S437.9,377.6,432.3,377.6z M429.5,265.8c2.6,0,4.8,2.1,4.8,4.8s-2.1,4.8-4.8,4.8
			s-4.8-2.1-4.8-4.8S426.9,265.8,429.5,265.8z M424.7,257.6c0-2.6,2.1-4.8,4.8-4.8s4.8,2.1,4.8,4.8c0,2.6-2.1,4.8-4.8,4.8
			S424.7,260.2,424.7,257.6z M429.5,278.8c2.6,0,4.8,2.1,4.8,4.8s-2.1,4.8-4.8,4.8s-4.8-2.1-4.8-4.8S426.9,278.8,429.5,278.8z
			 M429.5,291.8c2.6,0,4.8,2.1,4.8,4.8s-2.1,4.8-4.8,4.8s-4.8-2.1-4.8-4.8S426.9,291.8,429.5,291.8z M429.5,304.8
			c2.6,0,4.8,2.1,4.8,4.8s-2.1,4.8-4.8,4.8s-4.8-2.1-4.8-4.8S426.9,304.8,429.5,304.8z M429.5,317.8c2.6,0,4.8,2.1,4.8,4.8
			c0,2.6-2.1,4.8-4.8,4.8s-4.8-2.1-4.8-4.8C424.7,320,426.9,317.8,429.5,317.8z M429.5,330.8c2.6,0,4.8,2.1,4.8,4.8
			s-2.1,4.8-4.8,4.8s-4.8-2.1-4.8-4.8S426.9,330.8,429.5,330.8z M429.5,343.8c2.6,0,4.8,2.1,4.8,4.8c0,2.6-2.1,4.8-4.8,4.8
			s-4.8-2.1-4.8-4.8C424.7,346,426.9,343.8,429.5,343.8z M442.5,353.4c-2.6,0-4.8-2.1-4.8-4.8c0-2.6,2.1-4.8,4.8-4.8
			c2.6,0,4.8,2.1,4.8,4.8C447.3,351.2,445.2,353.4,442.5,353.4z M442.5,340.4c-2.6,0-4.8-2.1-4.8-4.8s2.1-4.8,4.8-4.8
			c2.6,0,4.8,2.1,4.8,4.8S445.2,340.4,442.5,340.4z M442.5,327.4c-2.6,0-4.8-2.1-4.8-4.8c0-2.6,2.1-4.8,4.8-4.8
			c2.6,0,4.8,2.1,4.8,4.8C447.3,325.2,445.2,327.4,442.5,327.4z M442.5,314.4c-2.6,0-4.8-2.1-4.8-4.8s2.1-4.8,4.8-4.8
			c2.6,0,4.8,2.1,4.8,4.8S445.2,314.4,442.5,314.4z M442.5,301.4c-2.6,0-4.8-2.1-4.8-4.8s2.1-4.8,4.8-4.8c2.6,0,4.8,2.1,4.8,4.8
			S445.2,301.4,442.5,301.4z M442.5,288.4c-2.6,0-4.8-2.1-4.8-4.8s2.1-4.8,4.8-4.8c2.6,0,4.8,2.1,4.8,4.8S445.2,288.4,442.5,288.4z
			 M442.5,275.4c-2.6,0-4.8-2.1-4.8-4.8s2.1-4.8,4.8-4.8c2.6,0,4.8,2.1,4.8,4.8S445.2,275.4,442.5,275.4z M442.5,262.4
			c-2.6,0-4.8-2.1-4.8-4.8c0-2.6,2.1-4.8,4.8-4.8c2.6,0,4.8,2.1,4.8,4.8C447.3,260.2,445.2,262.4,442.5,262.4z M447.4,232.7
			c0,5-4.1,9.1-9.1,9.1h-58.6c-5,0-9.1-4.1-9.1-9.1V124.9c0-5,4.1-9.1,9.1-9.1h58.6c5,0,9.1,4.1,9.1,9.1V232.7z"/>
		<path class="st2" d="M438.2,115.7h-58.6c-5,0-9.1,4.1-9.1,9.1v107.8c0,5,4.1,9.1,9.1,9.1h58.6c5,0,9.1-4.1,9.1-9.1V124.9
			C447.4,119.8,443.3,115.7,438.2,115.7z M445,231.9c0,4.3-3.5,7.9-7.9,7.9h-56.4c-4.3,0-7.9-3.5-7.9-7.9V125.7
			c0-4.3,3.5-7.9,7.9-7.9h56.4c4.3,0,7.9,3.5,7.9,7.9V231.9z"/>
		<path class="st3" d="M437.1,117.8h-56.4c-4.3,0-7.9,3.5-7.9,7.9v106.2c0,4.3,3.5,7.9,7.9,7.9h56.4c4.3,0,7.9-3.5,7.9-7.9V125.7
			C445,121.3,441.4,117.8,437.1,117.8z M408.9,227.6c-11.9,0-21.6-9.7-21.6-21.6c0-11.9,9.7-21.6,21.6-21.6
			c11.9,0,21.6,9.7,21.6,21.6C430.5,218,420.8,227.6,408.9,227.6z M408.9,172.6c-11.9,0-21.6-9.7-21.6-21.6
			c0-11.9,9.7-21.6,21.6-21.6c11.9,0,21.6,9.7,21.6,21.6C430.5,163,420.8,172.6,408.9,172.6z"/>
		
			<ellipse transform="matrix(0.7071 -0.7071 0.7071 0.7071 -71.5722 342.4032)" class="st2" cx="377.5" cy="257.6" rx="4.8" ry="4.8"/>
		<circle class="st2" cx="390.5" cy="257.6" r="4.8"/>
		
			<ellipse transform="matrix(0.7071 -0.7071 0.7071 0.7071 -63.9565 360.7891)" class="st2" cx="403.5" cy="257.6" rx="4.8" ry="4.8"/>
		
			<ellipse transform="matrix(0.9732 -0.2298 0.2298 0.9732 -48.0407 102.5902)" class="st2" cx="416.5" cy="257.6" rx="4.8" ry="4.8"/>
		<circle class="st2" cx="429.5" cy="257.6" r="4.8"/>
		
			<ellipse transform="matrix(0.9732 -0.2298 0.2298 0.9732 -47.3452 108.5641)" class="st2" cx="442.5" cy="257.6" rx="4.8" ry="4.8"/>
		<ellipse transform="matrix(0.9871 -0.1602 0.1602 0.9871 -38.47 63.9677)" class="st2" cx="377.5" cy="270.6" rx="4.8" ry="4.8"/>
		<circle class="st2" cx="390.5" cy="270.6" r="4.8"/>
		
			<ellipse transform="matrix(0.3827 -0.9239 0.9239 0.3827 -0.8924 539.8597)" class="st2" cx="403.5" cy="270.6" rx="4.8" ry="4.8"/>
		
			<ellipse transform="matrix(0.9871 -0.1602 0.1602 0.9871 -37.9663 70.2152)" class="st2" cx="416.5" cy="270.6" rx="4.8" ry="4.8"/>
		<circle class="st2" cx="429.5" cy="270.6" r="4.8"/>
		
			<ellipse transform="matrix(0.9871 -0.1602 0.1602 0.9871 -37.6306 74.3802)" class="st2" cx="442.5" cy="270.6" rx="4.8" ry="4.8"/>
		
			<ellipse transform="matrix(0.9732 -0.2298 0.2298 0.9732 -55.058 94.3249)" class="st2" cx="377.5" cy="283.6" rx="4.8" ry="4.8"/>
		<circle class="st2" cx="390.5" cy="283.6" r="4.8"/>
		
			<ellipse transform="matrix(0.9732 -0.2298 0.2298 0.9732 -54.3629 100.2999)" class="st2" cx="403.5" cy="283.6" rx="4.8" ry="4.8"/>
		
			<ellipse transform="matrix(0.7071 -0.7071 0.7071 0.7071 -78.5345 377.5978)" class="st2" cx="416.5" cy="283.6" rx="4.8" ry="4.8"/>
		<circle class="st2" cx="429.5" cy="283.6" r="4.8"/>
		
			<ellipse transform="matrix(0.7071 -0.7071 0.7071 0.7071 -70.9188 395.9837)" class="st2" cx="442.5" cy="283.6" rx="4.8" ry="4.8"/>
		
			<ellipse transform="matrix(0.7071 -0.7071 0.7071 0.7071 -99.1511 353.8267)" class="st2" cx="377.5" cy="296.6" rx="4.8" ry="4.8"/>
		<circle class="st2" cx="390.5" cy="296.6" r="4.8"/>
		
			<ellipse transform="matrix(0.7071 -0.7071 0.7071 0.7071 -91.5354 372.2126)" class="st2" cx="403.5" cy="296.6" rx="4.8" ry="4.8"/>
		
			<ellipse transform="matrix(0.9732 -0.2298 0.2298 0.9732 -57.0016 103.6335)" class="st2" cx="416.5" cy="296.6" rx="4.8" ry="4.8"/>
		<circle class="st2" cx="429.5" cy="296.6" r="4.8"/>
		
			<ellipse transform="matrix(0.9732 -0.2298 0.2298 0.9732 -56.306 109.6075)" class="st2" cx="442.5" cy="296.6" rx="4.8" ry="4.8"/>
		
			<ellipse transform="matrix(0.9871 -0.1602 0.1602 0.9871 -44.7174 64.4713)" class="st2" cx="377.5" cy="309.6" rx="4.8" ry="4.8"/>
		<circle class="st2" cx="390.5" cy="309.6" r="4.8"/>
		
			<ellipse transform="matrix(0.3827 -0.9239 0.9239 0.3827 -36.926 563.9365)" class="st2" cx="403.5" cy="309.6" rx="4.8" ry="4.8"/>
		
			<ellipse transform="matrix(0.9871 -0.1602 0.1602 0.9871 -44.2138 70.7188)" class="st2" cx="416.5" cy="309.6" rx="4.8" ry="4.8"/>
		<circle class="st2" cx="429.5" cy="309.6" r="4.8"/>
		
			<ellipse transform="matrix(0.9871 -0.1602 0.1602 0.9871 -43.8781 74.8838)" class="st2" cx="442.5" cy="309.6" rx="4.8" ry="4.8"/>
		
			<ellipse transform="matrix(0.7071 -0.7071 0.7071 0.7071 -117.537 361.4424)" class="st2" cx="377.5" cy="322.6" rx="4.8" ry="4.8"/>
		<circle class="st2" cx="390.5" cy="322.6" r="4.8"/>
		
			<ellipse transform="matrix(0.7071 -0.7071 0.7071 0.7071 -109.9213 379.8284)" class="st2" cx="403.5" cy="322.6" rx="4.8" ry="4.8"/>
		
			<ellipse transform="matrix(0.9732 -0.2298 0.2298 0.9732 -62.9755 104.3291)" class="st2" cx="416.5" cy="322.6" rx="4.8" ry="4.8"/>
		<circle class="st2" cx="429.5" cy="322.6" r="4.8"/>
		<ellipse transform="matrix(0.9732 -0.2298 0.2298 0.9732 -62.28 110.303)" class="st2" cx="442.5" cy="322.6" rx="4.8" ry="4.8"/>
		
			<ellipse transform="matrix(0.9871 -0.1602 0.1602 0.9871 -48.8824 64.807)" class="st2" cx="377.5" cy="335.6" rx="4.8" ry="4.8"/>
		<circle class="st2" cx="390.5" cy="335.6" r="4.8"/>
		
			<ellipse transform="matrix(0.3827 -0.9239 0.9239 0.3827 -60.9483 579.9878)" class="st2" cx="403.5" cy="335.6" rx="4.8" ry="4.8"/>
		
			<ellipse transform="matrix(0.9871 -0.1602 0.1602 0.9871 -48.3788 71.0545)" class="st2" cx="416.5" cy="335.6" rx="4.8" ry="4.8"/>
		<circle class="st2" cx="429.5" cy="335.6" r="4.8"/>
		
			<ellipse transform="matrix(0.9871 -0.1602 0.1602 0.9871 -48.0431 75.2195)" class="st2" cx="442.5" cy="335.6" rx="4.8" ry="4.8"/>
		
			<ellipse transform="matrix(0.7071 -0.7071 0.7071 0.7071 -135.9229 369.0581)" class="st2" cx="377.5" cy="348.6" rx="4.8" ry="4.8"/>
		<circle class="st2" cx="390.5" cy="348.6" r="4.8"/>
		
			<ellipse transform="matrix(0.9732 -0.2298 0.2298 0.9732 -69.2979 102.0389)" class="st2" cx="403.5" cy="348.6" rx="4.8" ry="4.8"/>
		
			<ellipse transform="matrix(0.7071 -0.7071 0.7071 0.7071 -124.4994 396.637)" class="st2" cx="416.5" cy="348.6" rx="4.8" ry="4.8"/>
		<circle class="st2" cx="429.5" cy="348.6" r="4.8"/>
		
			<ellipse transform="matrix(0.7071 -0.7071 0.7071 0.7071 -116.8837 415.023)" class="st2" cx="442.5" cy="348.6" rx="4.8" ry="4.8"/>
		<path class="st4" d="M248.9,48.5l-1.1,2.9l-0.7,2l-0.3,0.9l92.1,33.8c6.4,0,12.3,0,18,0.1L248.9,48.5z"/>
		<polygon class="st4" points="248.6,49.4 132.2,6.7 131.4,8.7 130.7,10.7 247.1,53.4 247.9,51.4 		"/>
		<path class="st4" d="M132.4,5.9c0.3-0.9-0.1-1.8-1-2.1l-5-1.8c-0.9-0.3-1.8,0.1-2.1,1l-2,5.5c-0.3,0.9,0.1,1.8,1,2.1l5,1.8
			c0.9,0.3,1.8-0.1,2.1-1l1-2.7l0.7-2L132.4,5.9z"/>
		<g>
			<path class="st5" d="M342.4,191.3c-6.1-49.1-10.8-71.6-76.6-76.6c-23.7-1.8-31-3-57.6-3s-36.6,0.2-65.3,3
				c-57.7,5.7-69.1,22.6-77.6,76.6c-3.1,19.8-2,31.6-2,39.7c0,8.7-0.9,19.3,2,45.8c5.6,51.9,27.4,70.8,77.6,76.6
				c24.5,2.8,33.9,3.7,61.4,3.7c27.5,0,36.4-0.2,61.4-3.7c63.2-8.8,69.1-30.8,76.6-76.6c3.1-19.4,3-32.9,3-42.3
				C345.4,223.1,344.9,211.3,342.4,191.3z"/>
			<path class="st2" d="M355.1,134.4c-0.8-17.3-5.9-23.9-24-26c-17.5-2-63.9-5-126.9-5s-108.5,2.6-126.9,5c-18.2,2.4-22.6,8.2-24,26
				c-1.5,17.6-5,44.4-5,96c0,51.6,3.6,84.9,5,105.2c1.4,19.7,4.2,23.5,24,26c19.4,2.5,50.6,5,126.9,5s96.1-1.4,126.9-5
				c19-2.2,23-11.2,24-26c1.4-19.6,5-49.8,5-100.6C360.1,184.2,355.7,147.5,355.1,134.4z M342.4,276.8
				c-7.4,45.7-13.4,67.7-76.6,76.6c-25,3.5-33.9,3.7-61.4,3.7c-27.5,0-36.9-0.9-61.4-3.7c-50.2-5.7-71.9-24.6-77.6-76.6
				c-2.9-26.5-2-37.1-2-45.8c0-8-1.1-19.9,2-39.7c8.5-54,19.9-70.8,77.6-76.6c28.6-2.8,38.7-3,65.3-3s33.9,1.2,57.6,3
				c65.8,4.9,70.4,27.5,76.6,76.6c2.5,20,3,31.8,3,43.2C345.4,243.9,345.5,257.4,342.4,276.8z"/>
		</g>
		<path class="st6" d="M408.9,129.5c-11.9,0-21.6,9.7-21.6,21.6c0,11.9,9.7,21.6,21.6,21.6c11.9,0,21.6-9.7,21.6-21.6
			C430.5,139.1,420.8,129.5,408.9,129.5z M415.2,136.1c0.6-1,1.8-1.3,2.8-0.8s1.3,1.8,0.8,2.8c-0.6,1-1.8,1.3-2.8,0.8
			C414.9,138.3,414.6,137.1,415.2,136.1z M408.9,132.9c1.1,0,2.1,0.9,2.1,2.1s-0.9,2.1-2.1,2.1c-1.1,0-2.1-0.9-2.1-2.1
			S407.8,132.9,408.9,132.9z M399.8,135.3c1-0.6,2.3-0.2,2.8,0.8c0.6,1,0.2,2.3-0.8,2.8c-1,0.6-2.3,0.2-2.8-0.8
			C398.5,137.2,398.8,135.9,399.8,135.3z M390.7,151.1c0-1.1,0.9-2.1,2.1-2.1s2.1,0.9,2.1,2.1c0,1.1-0.9,2.1-2.1,2.1
			S390.7,152.2,390.7,151.1z M396,160.9c-1,0.6-2.3,0.2-2.8-0.8c-0.6-1-0.2-2.3,0.8-2.8c1-0.6,2.3-0.2,2.8,0.8
			C397.3,159.1,397,160.3,396,160.9z M396.8,144c-0.6,1-1.8,1.3-2.8,0.8c-1-0.6-1.3-1.8-0.8-2.8c0.6-1,1.8-1.3,2.8-0.8
			C397,141.8,397.3,143.1,396.8,144z M402.7,166c-0.6,1-1.8,1.3-2.8,0.8c-1-0.6-1.3-1.8-0.8-2.8c0.6-1,1.8-1.3,2.8-0.8
			C402.9,163.8,403.2,165,402.7,166z M408.9,169.2c-1.1,0-2.1-0.9-2.1-2.1s0.9-2.1,2.1-2.1c1.1,0,2.1,0.9,2.1,2.1
			S410.1,169.2,408.9,169.2z M418,166.8c-1,0.6-2.3,0.2-2.8-0.8c-0.6-1-0.2-2.3,0.8-2.8c1-0.6,2.3-0.2,2.8,0.8S419,166.2,418,166.8z
			 M408.9,161.6c-5.8,0-10.6-4.7-10.6-10.6s4.7-10.6,10.6-10.6s10.6,4.7,10.6,10.6S414.8,161.6,408.9,161.6z M424.6,160.1
			c-0.6,1-1.8,1.3-2.8,0.8c-1-0.6-1.3-1.8-0.8-2.8c0.6-1,1.8-1.3,2.8-0.8C424.9,157.9,425.2,159.2,424.6,160.1z M427.1,151.1
			c0,1.1-0.9,2.1-2.1,2.1s-2.1-0.9-2.1-2.1s0.9-2.1,2.1-2.1S427.1,149.9,427.1,151.1z M424.6,142c0.6,1,0.2,2.3-0.8,2.8
			c-1,0.6-2.3,0.2-2.8-0.8c-0.6-1-0.2-2.3,0.8-2.8C422.8,140.6,424.1,141,424.6,142z"/>
		
			<ellipse transform="matrix(0.7071 -0.7071 0.7071 0.7071 12.9533 333.3881)" class="st4" cx="408.9" cy="151.1" rx="10.6" ry="10.6"/>
		<path class="st4" d="M408.9,137c1.1,0,2.1-0.9,2.1-2.1s-0.9-2.1-2.1-2.1c-1.1,0-2.1,0.9-2.1,2.1S407.8,137,408.9,137z"/>
		<path class="st4" d="M408.9,165.1c-1.1,0-2.1,0.9-2.1,2.1s0.9,2.1,2.1,2.1c1.1,0,2.1-0.9,2.1-2.1S410.1,165.1,408.9,165.1z"/>
		<path class="st4" d="M401.9,138.9c1-0.6,1.3-1.8,0.8-2.8c-0.6-1-1.8-1.3-2.8-0.8c-1,0.6-1.3,1.8-0.8,2.8
			C399.6,139.1,400.9,139.5,401.9,138.9z"/>
		<path class="st4" d="M415.9,163.2c-1,0.6-1.3,1.8-0.8,2.8c0.6,1,1.8,1.3,2.8,0.8c1-0.6,1.3-1.8,0.8-2.8S416.9,162.6,415.9,163.2z"
			/>
		<path class="st4" d="M396,141.2c-1-0.6-2.3-0.2-2.8,0.8c-0.6,1-0.2,2.3,0.8,2.8c1,0.6,2.3,0.2,2.8-0.8
			C397.3,143.1,397,141.8,396,141.2z"/>
		<path class="st4" d="M423.9,157.3c-1-0.6-2.3-0.2-2.8,0.8c-0.6,1-0.2,2.3,0.8,2.8c1,0.6,2.3,0.2,2.8-0.8
			C425.2,159.2,424.9,157.9,423.9,157.3z"/>
		<path class="st4" d="M394.9,151.1c0-1.1-0.9-2.1-2.1-2.1s-2.1,0.9-2.1,2.1c0,1.1,0.9,2.1,2.1,2.1S394.9,152.2,394.9,151.1z"/>
		<path class="st4" d="M422.9,151.1c0,1.1,0.9,2.1,2.1,2.1s2.1-0.9,2.1-2.1s-0.9-2.1-2.1-2.1S422.9,149.9,422.9,151.1z"/>
		<path class="st4" d="M393.9,157.3c-1,0.6-1.3,1.8-0.8,2.8c0.6,1,1.8,1.3,2.8,0.8s1.3-1.8,0.8-2.8
			C396.2,157.1,394.9,156.7,393.9,157.3z"/>
		<path class="st4" d="M421.8,141.2c-1,0.6-1.3,1.8-0.8,2.8c0.6,1,1.8,1.3,2.8,0.8c1-0.6,1.3-1.8,0.8-2.8
			C424.1,141,422.8,140.6,421.8,141.2z"/>
		<path class="st4" d="M401.9,163.2c-1-0.6-2.3-0.2-2.8,0.8c-0.6,1-0.2,2.3,0.8,2.8c1,0.6,2.3,0.2,2.8-0.8
			C403.2,165,402.9,163.8,401.9,163.2z"/>
		<path class="st4" d="M415.9,138.9c1,0.6,2.3,0.2,2.8-0.8c0.6-1,0.2-2.3-0.8-2.8s-2.3-0.2-2.8,0.8
			C414.6,137.1,414.9,138.3,415.9,138.9z"/>
		<path class="st6" d="M408.9,184.5c-11.9,0-21.6,9.7-21.6,21.6c0,11.9,9.7,21.6,21.6,21.6c11.9,0,21.6-9.7,21.6-21.6
			C430.5,194.1,420.8,184.5,408.9,184.5z M415.2,191.1c0.6-1,1.8-1.3,2.8-0.8c1,0.6,1.3,1.8,0.8,2.8c-0.6,1-1.8,1.3-2.8,0.8
			C414.9,193.3,414.6,192.1,415.2,191.1z M408.9,187.9c1.1,0,2.1,0.9,2.1,2.1s-0.9,2.1-2.1,2.1c-1.1,0-2.1-0.9-2.1-2.1
			S407.8,187.9,408.9,187.9z M399.8,190.3c1-0.6,2.3-0.2,2.8,0.8c0.6,1,0.2,2.3-0.8,2.8c-1,0.6-2.3,0.2-2.8-0.8
			S398.8,190.9,399.8,190.3z M390.7,206.1c0-1.1,0.9-2.1,2.1-2.1s2.1,0.9,2.1,2.1s-0.9,2.1-2.1,2.1S390.7,207.2,390.7,206.1z
			 M396,215.9c-1,0.6-2.3,0.2-2.8-0.8c-0.6-1-0.2-2.3,0.8-2.8c1-0.6,2.3-0.2,2.8,0.8C397.3,214.1,397,215.3,396,215.9z M396.8,199
			c-0.6,1-1.8,1.3-2.8,0.8c-1-0.6-1.3-1.8-0.8-2.8c0.6-1,1.8-1.3,2.8-0.8C397,196.8,397.3,198.1,396.8,199z M402.7,221
			c-0.6,1-1.8,1.3-2.8,0.8c-1-0.6-1.3-1.8-0.8-2.8c0.6-1,1.8-1.3,2.8-0.8C402.9,218.8,403.2,220,402.7,221z M408.9,224.2
			c-1.1,0-2.1-0.9-2.1-2.1s0.9-2.1,2.1-2.1c1.1,0,2.1,0.9,2.1,2.1S410.1,224.2,408.9,224.2z M418,221.8c-1,0.6-2.3,0.2-2.8-0.8
			c-0.6-1-0.2-2.3,0.8-2.8c1-0.6,2.3-0.2,2.8,0.8C419.3,220,419,221.2,418,221.8z M408.9,216.6c-5.8,0-10.6-4.7-10.6-10.6
			s4.7-10.6,10.6-10.6s10.6,4.7,10.6,10.6S414.8,216.6,408.9,216.6z M424.6,215.1c-0.6,1-1.8,1.3-2.8,0.8c-1-0.6-1.3-1.8-0.8-2.8
			c0.6-1,1.8-1.3,2.8-0.8C424.9,212.9,425.2,214.2,424.6,215.1z M427.1,206.1c0,1.1-0.9,2.1-2.1,2.1s-2.1-0.9-2.1-2.1
			c0-1.1,0.9-2.1,2.1-2.1S427.1,204.9,427.1,206.1z M424.6,197c0.6,1,0.2,2.3-0.8,2.8c-1,0.6-2.3,0.2-2.8-0.8
			c-0.6-1-0.2-2.3,0.8-2.8C422.8,195.6,424.1,196,424.6,197z"/>
		
			<ellipse transform="matrix(0.9732 -0.2298 0.2298 0.9732 -36.4045 99.4613)" class="st4" cx="408.9" cy="206.1" rx="10.6" ry="10.6"/>
		<path class="st4" d="M408.9,192c1.1,0,2.1-0.9,2.1-2.1s-0.9-2.1-2.1-2.1c-1.1,0-2.1,0.9-2.1,2.1S407.8,192,408.9,192z"/>
		<path class="st4" d="M408.9,220.1c-1.1,0-2.1,0.9-2.1,2.1s0.9,2.1,2.1,2.1c1.1,0,2.1-0.9,2.1-2.1S410.1,220.1,408.9,220.1z"/>
		<path class="st4" d="M401.9,193.9c1-0.6,1.3-1.8,0.8-2.8c-0.6-1-1.8-1.3-2.8-0.8c-1,0.6-1.3,1.8-0.8,2.8S400.9,194.5,401.9,193.9z
			"/>
		<path class="st4" d="M415.9,218.2c-1,0.6-1.3,1.8-0.8,2.8c0.6,1,1.8,1.3,2.8,0.8c1-0.6,1.3-1.8,0.8-2.8
			C418.2,218,416.9,217.6,415.9,218.2z"/>
		<path class="st4" d="M396,196.2c-1-0.6-2.3-0.2-2.8,0.8c-0.6,1-0.2,2.3,0.8,2.8c1,0.6,2.3,0.2,2.8-0.8
			C397.3,198.1,397,196.8,396,196.2z"/>
		<path class="st4" d="M423.9,212.3c-1-0.6-2.3-0.2-2.8,0.8c-0.6,1-0.2,2.3,0.8,2.8c1,0.6,2.3,0.2,2.8-0.8
			C425.2,214.2,424.9,212.9,423.9,212.3z"/>
		<path class="st4" d="M394.9,206.1c0-1.1-0.9-2.1-2.1-2.1s-2.1,0.9-2.1,2.1s0.9,2.1,2.1,2.1S394.9,207.2,394.9,206.1z"/>
		<path class="st4" d="M422.9,206.1c0,1.1,0.9,2.1,2.1,2.1s2.1-0.9,2.1-2.1c0-1.1-0.9-2.1-2.1-2.1S422.9,204.9,422.9,206.1z"/>
		<path class="st4" d="M393.9,212.3c-1,0.6-1.3,1.8-0.8,2.8c0.6,1,1.8,1.3,2.8,0.8s1.3-1.8,0.8-2.8
			C396.2,212.1,394.9,211.7,393.9,212.3z"/>
		<path class="st4" d="M421.8,196.2c-1,0.6-1.3,1.8-0.8,2.8c0.6,1,1.8,1.3,2.8,0.8c1-0.6,1.3-1.8,0.8-2.8S422.8,195.6,421.8,196.2z"
			/>
		<path class="st4" d="M401.9,218.2c-1-0.6-2.3-0.2-2.8,0.8c-0.6,1-0.2,2.3,0.8,2.8c1,0.6,2.3,0.2,2.8-0.8
			C403.2,220,402.9,218.8,401.9,218.2z"/>
		<path class="st4" d="M415.9,193.9c1,0.6,2.3,0.2,2.8-0.8c0.6-1,0.2-2.3-0.8-2.8c-1-0.6-2.3-0.2-2.8,0.8
			C414.6,192.1,414.9,193.3,415.9,193.9z"/>
		<path class="st4" d="M390.3,357.4c-5.6,0-10.1,4.5-10.1,10.1s4.5,10.1,10.1,10.1s10.1-4.5,10.1-10.1S395.9,357.4,390.3,357.4z
			 M390.3,372.6c-2.8,0-5.1-2.3-5.1-5.1s2.3-5.1,5.1-5.1s5.1,2.3,5.1,5.1S393.1,372.6,390.3,372.6z"/>
		<circle class="st7" cx="390.3" cy="367.5" r="5.1"/>
		<path class="st4" d="M432.3,357.4c-5.6,0-10.1,4.5-10.1,10.1s4.5,10.1,10.1,10.1s10.1-4.5,10.1-10.1S437.9,357.4,432.3,357.4z
			 M432.3,372.6c-2.8,0-5.1-2.3-5.1-5.1s2.3-5.1,5.1-5.1s5.1,2.3,5.1,5.1S435.1,372.6,432.3,372.6z"/>
		<circle class="st7" cx="432.3" cy="367.5" r="5.1"/>
	</g>
</g>
</svg>
