<svg xmlns="http://www.w3.org/2000/svg" viewBox="0 0 72.75 24.19"><defs><style>.cls-1{fill:none;stroke:#1d1d1b;stroke-linecap:round;stroke-linejoin:round;stroke-width:0.75px;}</style></defs><g id="Layer_2" data-name="Layer 2"><g id="Calque_2" data-name="Calque 2"><line class="cls-1" x1="34.58" y1="20.25" x2="41.92" y2="18.99"/><line class="cls-1" x1="21.18" y1="6.85" x2="26.1" y2="6.01"/><line class="cls-1" x1="26.1" y1="6.01" x2="28.53" y2="5.6"/><line class="cls-1" x1="58.98" y1="0.38" x2="28.53" y2="5.6"/><line class="cls-1" x1="21.18" y1="6.85" x2="0.38" y2="10.42"/><line class="cls-1" x1="21.18" y1="6.85" x2="22.14" y2="2.05"/><polyline class="cls-1" points="33.86 23.82 34.58 20.25 21.18 6.86 20.47 10.42"/><line class="cls-1" x1="0.38" y1="10.42" x2="20.47" y2="10.42"/><line class="cls-1" x1="13.77" y1="23.82" x2="33.86" y2="23.82"/><line class="cls-1" x1="0.38" y1="10.42" x2="13.77" y2="23.82"/><line class="cls-1" x1="30.92" y1="20.88" x2="33.86" y2="23.82"/><line class="cls-1" x1="30.92" y1="20.88" x2="20.47" y2="10.42"/><line class="cls-1" x1="72.38" y1="13.77" x2="50.61" y2="23.82"/><line class="cls-1" x1="58.98" y1="0.38" x2="37.21" y2="10.42"/><line class="cls-1" x1="58.98" y1="0.38" x2="72.38" y2="13.77"/><line class="cls-1" x1="28.53" y1="5.6" x2="37.21" y2="10.42"/><polyline class="cls-1" points="22.14 2.05 28.53 5.6 41.92 18.99 50.61 23.82"/><line class="cls-1" x1="45.22" y1="18.43" x2="50.61" y2="23.82"/><line class="cls-1" x1="45.22" y1="18.43" x2="37.21" y2="10.42"/></g></g></svg>